<svg xmlns="http://www.w3.org/2000/svg" xmlns:xlink="http://www.w3.org/1999/xlink" width="375" viewBox="0 0 375 375" height="375" version="1.0"><defs><clipPath id="g"><path d="M 139.015625 169.308594 L 234.265625 169.308594 L 234.265625 272 L 139.015625 272 Z M 139.015625 169.308594"/></clipPath><clipPath id="t"><path d="M 60.917969 145.457031 L 125.417969 145.457031 L 125.417969 205.457031 L 60.917969 205.457031 Z M 60.917969 145.457031"/></clipPath><clipPath id="u"><path d="M 180 39 L 251.503906 39 L 251.503906 92 L 180 92 Z M 180 39"/></clipPath><clipPath id="v"><path d="M 109.753906 63 L 153 63 L 153 105 L 109.753906 105 Z M 109.753906 63"/></clipPath><clipPath id="w"><path d="M 247.429688 149.28125 L 281.929688 149.28125 L 281.929688 163 L 247.429688 163 Z M 247.429688 149.28125"/></clipPath><clipPath id="x"><path d="M 160 270 L 205 270 L 205 282 L 160 282 Z M 160 270"/></clipPath><clipPath id="y"><path d="M 154.871094 229.460938 L 228.871094 254.117188 L 206.585938 321 L 132.585938 296.347656 Z M 154.871094 229.460938"/></clipPath><clipPath id="z"><path d="M 113.730469 181.664062 L 238.964844 223.390625 L 206.484375 320.871094 L 81.253906 279.148438 Z M 113.730469 181.664062"/></clipPath><clipPath id="A"><path d="M 143 249 L 220 249 L 220 305 L 143 305 Z M 143 249"/></clipPath><clipPath id="B"><path d="M 154.871094 229.460938 L 228.871094 254.117188 L 206.585938 321 L 132.585938 296.347656 Z M 154.871094 229.460938"/></clipPath><clipPath id="C"><path d="M 113.730469 181.664062 L 238.964844 223.390625 L 206.484375 320.871094 L 81.253906 279.148438 Z M 113.730469 181.664062"/></clipPath><clipPath id="D"><path d="M 155.507812 230.808594 L 228.390625 255.089844 L 206.453125 320.933594 L 133.570312 296.652344 Z M 155.507812 230.808594"/></clipPath><clipPath id="E"><path d="M 155.507812 230.808594 L 228.371094 255.082031 L 206.453125 320.871094 L 133.589844 296.59375 Z M 155.507812 230.808594"/></clipPath><clipPath id="F"><path d="M 175 276 L 192 276 L 192 288 L 175 288 Z M 175 276"/></clipPath><clipPath id="G"><path d="M 154.871094 229.460938 L 228.871094 254.117188 L 206.585938 321 L 132.585938 296.347656 Z M 154.871094 229.460938"/></clipPath><clipPath id="H"><path d="M 113.730469 181.664062 L 238.964844 223.390625 L 206.484375 320.871094 L 81.253906 279.148438 Z M 113.730469 181.664062"/></clipPath><clipPath id="I"><path d="M 132 229 L 180 229 L 180 272 L 132 272 Z M 132 229"/></clipPath><clipPath id="J"><path d="M 154.871094 229.460938 L 228.871094 254.117188 L 206.585938 321 L 132.585938 296.347656 Z M 154.871094 229.460938"/></clipPath><clipPath id="K"><path d="M 113.730469 181.664062 L 238.964844 223.390625 L 206.484375 320.871094 L 81.253906 279.148438 Z M 113.730469 181.664062"/></clipPath><clipPath id="L"><path d="M 134 230 L 154 230 L 154 250 L 134 250 Z M 134 230"/></clipPath><clipPath id="M"><path d="M 154.871094 229.460938 L 228.871094 254.117188 L 206.585938 321 L 132.585938 296.347656 Z M 154.871094 229.460938"/></clipPath><clipPath id="N"><path d="M 113.730469 181.664062 L 238.964844 223.390625 L 206.484375 320.871094 L 81.253906 279.148438 Z M 113.730469 181.664062"/></clipPath><clipPath id="O"><path d="M 132 229 L 148 229 L 148 235 L 132 235 Z M 132 229"/></clipPath><clipPath id="P"><path d="M 154.871094 229.460938 L 228.871094 254.117188 L 206.585938 321 L 132.585938 296.347656 Z M 154.871094 229.460938"/></clipPath><clipPath id="Q"><path d="M 113.730469 181.664062 L 238.964844 223.390625 L 206.484375 320.871094 L 81.253906 279.148438 Z M 113.730469 181.664062"/></clipPath><g id="b"><path d="M 3.6875 -12.265625 L 3.6875 -2.453125 L 7.90625 -2.453125 L 7.90625 0 L 0.890625 0 L 0.890625 -12.265625 Z M 3.6875 -12.265625"/></g><g id="c"><path d="M 7.125 -12.265625 L 12.078125 0 L 9.078125 0 L 8.171875 -2.453125 L 3.5 -2.453125 L 2.59375 0 L -0.421875 0 L 4.53125 -12.265625 Z M 7.21875 -4.90625 L 5.84375 -8.484375 L 5.8125 -8.484375 L 4.453125 -4.90625 Z M 7.21875 -4.90625"/></g><g id="d"><path d="M 5.421875 -12.5 C 6.078125 -12.5 6.722656 -12.398438 7.359375 -12.203125 C 7.992188 -12.015625 8.46875 -11.820312 8.78125 -11.625 L 9.21875 -11.328125 L 8.09375 -9.109375 C 8 -9.160156 7.875 -9.234375 7.71875 -9.328125 C 7.5625 -9.421875 7.265625 -9.546875 6.828125 -9.703125 C 6.390625 -9.867188 5.984375 -9.953125 5.609375 -9.953125 C 5.140625 -9.953125 4.78125 -9.851562 4.53125 -9.65625 C 4.28125 -9.457031 4.15625 -9.1875 4.15625 -8.84375 C 4.15625 -8.675781 4.210938 -8.519531 4.328125 -8.375 C 4.441406 -8.238281 4.644531 -8.085938 4.9375 -7.921875 C 5.226562 -7.753906 5.484375 -7.617188 5.703125 -7.515625 C 5.921875 -7.421875 6.253906 -7.273438 6.703125 -7.078125 C 7.503906 -6.742188 8.179688 -6.285156 8.734375 -5.703125 C 9.296875 -5.117188 9.578125 -4.460938 9.578125 -3.734375 C 9.578125 -3.023438 9.453125 -2.40625 9.203125 -1.875 C 8.953125 -1.351562 8.601562 -0.941406 8.15625 -0.640625 C 7.71875 -0.347656 7.226562 -0.132812 6.6875 0 C 6.15625 0.144531 5.578125 0.21875 4.953125 0.21875 C 4.421875 0.21875 3.894531 0.160156 3.375 0.046875 C 2.863281 -0.0546875 2.429688 -0.1875 2.078125 -0.34375 C 1.734375 -0.507812 1.421875 -0.671875 1.140625 -0.828125 C 0.867188 -0.992188 0.664062 -1.128906 0.53125 -1.234375 L 0.34375 -1.390625 L 1.734375 -3.75 C 1.859375 -3.644531 2.023438 -3.515625 2.234375 -3.359375 C 2.441406 -3.210938 2.8125 -3.007812 3.34375 -2.75 C 3.875 -2.488281 4.34375 -2.359375 4.75 -2.359375 C 5.925781 -2.359375 6.515625 -2.757812 6.515625 -3.5625 C 6.515625 -3.738281 6.472656 -3.894531 6.390625 -4.03125 C 6.304688 -4.175781 6.15625 -4.320312 5.9375 -4.46875 C 5.726562 -4.613281 5.539062 -4.726562 5.375 -4.8125 C 5.207031 -4.894531 4.9375 -5.019531 4.5625 -5.1875 C 4.195312 -5.363281 3.925781 -5.5 3.75 -5.59375 C 3.007812 -5.957031 2.429688 -6.414062 2.015625 -6.96875 C 1.609375 -7.519531 1.40625 -8.113281 1.40625 -8.75 C 1.40625 -9.84375 1.8125 -10.738281 2.625 -11.4375 C 3.445312 -12.144531 4.378906 -12.5 5.421875 -12.5 Z M 5.421875 -12.5"/></g><g id="e"><path d="M 11.984375 -6.875 L 11.984375 -4.203125 C 11.671875 -2.742188 10.976562 -1.640625 9.90625 -0.890625 C 8.832031 -0.148438 7.640625 0.21875 6.328125 0.21875 C 4.671875 0.21875 3.257812 -0.398438 2.09375 -1.640625 C 0.925781 -2.878906 0.34375 -4.375 0.34375 -6.125 C 0.34375 -7.914062 0.910156 -9.425781 2.046875 -10.65625 C 3.191406 -11.882812 4.617188 -12.5 6.328125 -12.5 C 8.316406 -12.5 9.890625 -11.796875 11.046875 -10.390625 L 9.21875 -8.390625 C 8.5625 -9.441406 7.648438 -9.96875 6.484375 -9.96875 C 5.617188 -9.96875 4.878906 -9.59375 4.265625 -8.84375 C 3.660156 -8.09375 3.359375 -7.1875 3.359375 -6.125 C 3.359375 -5.082031 3.660156 -4.191406 4.265625 -3.453125 C 4.878906 -2.710938 5.617188 -2.34375 6.484375 -2.34375 C 7.203125 -2.34375 7.820312 -2.554688 8.34375 -2.984375 C 8.875 -3.421875 9.140625 -4 9.140625 -4.71875 L 6.328125 -4.71875 L 6.328125 -6.875 Z M 11.984375 -6.875"/></g><g id="f"><path d="M 3.6875 -7.609375 L 3.6875 0 L 0.890625 0 L 0.890625 -12.265625 L 3.6875 -12.265625 L 8.5625 -4.65625 L 8.59375 -4.65625 L 8.59375 -12.265625 L 11.390625 -12.265625 L 11.390625 0 L 8.59375 0 L 3.71875 -7.609375 Z M 3.6875 -7.609375"/></g><g id="h"><path d="M 7.140625 3.0625 C 5.828125 3.0625 4.609375 2.828125 3.484375 2.359375 C 2.359375 1.890625 1.457031 1.175781 0.78125 0.21875 C 0.113281 -0.726562 -0.21875 -1.878906 -0.21875 -3.234375 C -0.21875 -4.898438 0.238281 -6.101562 1.15625 -6.84375 C 2.070312 -7.582031 3.117188 -7.953125 4.296875 -7.953125 C 3.660156 -7.265625 3.175781 -6.507812 2.84375 -5.6875 C 2.519531 -4.875 2.359375 -4.054688 2.359375 -3.234375 C 2.359375 -1.828125 2.820312 -0.65625 3.75 0.28125 C 4.675781 1.21875 6.003906 1.6875 7.734375 1.6875 C 8.835938 1.6875 9.882812 1.488281 10.875 1.09375 C 11.875 0.695312 12.691406 0.113281 13.328125 -0.65625 C 13.960938 -1.4375 14.28125 -2.367188 14.28125 -3.453125 C 14.28125 -4.390625 14.046875 -5.210938 13.578125 -5.921875 C 13.109375 -6.640625 12.519531 -7.25 11.8125 -7.75 C 11.113281 -8.257812 10.175781 -8.863281 9 -9.5625 C 7.800781 -10.269531 6.84375 -10.882812 6.125 -11.40625 C 5.414062 -11.9375 4.816406 -12.578125 4.328125 -13.328125 C 3.835938 -14.078125 3.59375 -14.941406 3.59375 -15.921875 C 3.59375 -17.285156 4.015625 -18.695312 4.859375 -20.15625 C 5.703125 -21.625 6.890625 -22.847656 8.421875 -23.828125 C 9.953125 -24.816406 11.679688 -25.3125 13.609375 -25.3125 C 14.898438 -25.3125 15.835938 -24.992188 16.421875 -24.359375 C 17.003906 -23.734375 17.296875 -22.878906 17.296875 -21.796875 C 17.296875 -20.628906 17.015625 -19.316406 16.453125 -17.859375 C 15.890625 -16.410156 15.269531 -15.144531 14.59375 -14.0625 C 13.820312 -14.226562 13.4375 -14.734375 13.4375 -15.578125 C 13.4375 -16.023438 13.519531 -16.53125 13.6875 -17.09375 C 13.863281 -17.65625 14.117188 -18.359375 14.453125 -19.203125 C 14.804688 -20.109375 15.066406 -20.847656 15.234375 -21.421875 C 15.410156 -22.003906 15.5 -22.515625 15.5 -22.953125 C 15.5 -23.453125 15.351562 -23.828125 15.0625 -24.078125 C 14.769531 -24.335938 14.257812 -24.46875 13.53125 -24.46875 C 12.15625 -24.46875 10.875 -24.039062 9.6875 -23.1875 C 8.5 -22.332031 7.550781 -21.296875 6.84375 -20.078125 C 6.144531 -18.859375 5.796875 -17.742188 5.796875 -16.734375 C 5.796875 -15.984375 6 -15.316406 6.40625 -14.734375 C 6.820312 -14.148438 7.332031 -13.640625 7.9375 -13.203125 C 8.550781 -12.765625 9.382812 -12.253906 10.4375 -11.671875 C 11.707031 -10.941406 12.726562 -10.289062 13.5 -9.71875 C 14.269531 -9.144531 14.929688 -8.414062 15.484375 -7.53125 C 16.035156 -6.65625 16.3125 -5.625 16.3125 -4.4375 C 16.3125 -2.882812 15.859375 -1.546875 14.953125 -0.421875 C 14.054688 0.703125 12.90625 1.5625 11.5 2.15625 C 10.09375 2.757812 8.640625 3.0625 7.140625 3.0625 Z M 7.140625 3.0625"/></g><g id="i"><path d="M 6.75 -15.1875 C 6.332031 -15.1875 5.988281 -15.285156 5.71875 -15.484375 C 5.445312 -15.679688 5.3125 -15.96875 5.3125 -16.34375 C 5.3125 -16.8125 5.59375 -17.234375 6.15625 -17.609375 C 6.71875 -17.984375 7.289062 -18.171875 7.875 -18.171875 C 8.644531 -18.171875 9.03125 -17.8125 9.03125 -17.09375 C 9.03125 -16.644531 8.789062 -16.210938 8.3125 -15.796875 C 7.832031 -15.390625 7.3125 -15.1875 6.75 -15.1875 Z M 2.53125 0.921875 C 1.664062 0.921875 1 0.644531 0.53125 0.09375 C 0.0625 -0.457031 -0.171875 -1.171875 -0.171875 -2.046875 C -0.171875 -2.953125 0.0859375 -4.210938 0.609375 -5.828125 C 1.140625 -7.453125 1.796875 -8.875 2.578125 -10.09375 C 3.367188 -11.3125 4.140625 -11.921875 4.890625 -11.921875 C 5.097656 -11.921875 5.273438 -11.847656 5.421875 -11.703125 C 5.578125 -11.566406 5.65625 -11.378906 5.65625 -11.140625 C 5.65625 -10.816406 5.28125 -10.035156 4.53125 -8.796875 C 3.757812 -7.503906 3.144531 -6.347656 2.6875 -5.328125 C 2.226562 -4.304688 2 -3.335938 2 -2.421875 C 2 -1.609375 2.132812 -1.050781 2.40625 -0.75 C 2.675781 -0.457031 3.117188 -0.3125 3.734375 -0.3125 C 5.554688 -0.3125 7.359375 -2.109375 9.140625 -5.703125 L 9.453125 -5.34375 C 8.796875 -3.375 7.828125 -1.835938 6.546875 -0.734375 C 5.273438 0.367188 3.9375 0.921875 2.53125 0.921875 Z M 2.53125 0.921875"/></g><g id="j"><path d="M 2.921875 1.0625 C 1.960938 1.0625 1.253906 0.726562 0.796875 0.0625 C 0.335938 -0.59375 0.109375 -1.46875 0.109375 -2.5625 C 0.109375 -4.675781 0.832031 -7.539062 2.28125 -11.15625 C 3.738281 -14.78125 5.363281 -18.046875 7.15625 -20.953125 C 8.945312 -23.859375 10.242188 -25.3125 11.046875 -25.3125 C 11.367188 -25.3125 11.640625 -25.023438 11.859375 -24.453125 C 12.085938 -23.878906 12.203125 -23.300781 12.203125 -22.71875 C 12.203125 -21.632812 11.757812 -20.039062 10.875 -17.9375 C 10 -15.84375 8.847656 -13.71875 7.421875 -11.5625 C 5.992188 -9.40625 4.46875 -7.660156 2.84375 -6.328125 C 2.539062 -4.972656 2.390625 -3.789062 2.390625 -2.78125 C 2.390625 -0.976562 2.90625 -0.078125 3.9375 -0.078125 C 4.800781 -0.078125 5.6875 -0.625 6.59375 -1.71875 C 7.5 -2.820312 8.300781 -4.148438 9 -5.703125 L 9.53125 -5.421875 C 7.507812 -1.097656 5.304688 1.0625 2.921875 1.0625 Z M 3.171875 -7.53125 C 4.453125 -8.8125 5.707031 -10.429688 6.9375 -12.390625 C 8.175781 -14.347656 9.179688 -16.222656 9.953125 -18.015625 C 10.722656 -19.804688 11.109375 -21.101562 11.109375 -21.90625 C 11.109375 -22.28125 11.023438 -22.46875 10.859375 -22.46875 C 10.535156 -22.46875 9.863281 -21.664062 8.84375 -20.0625 C 7.820312 -18.457031 6.769531 -16.492188 5.6875 -14.171875 C 4.613281 -11.847656 3.773438 -9.632812 3.171875 -7.53125 Z M 3.171875 -7.53125"/></g><g id="k"><path d="M 3.796875 1.546875 C 2.410156 1.546875 1.347656 1.164062 0.609375 0.40625 C -0.128906 -0.351562 -0.5 -1.332031 -0.5 -2.53125 C -0.5 -3.914062 -0.0390625 -5.40625 0.875 -7 C 1.789062 -8.59375 2.945312 -9.929688 4.34375 -11.015625 C 5.738281 -12.109375 7.101562 -12.65625 8.4375 -12.65625 C 9.894531 -12.65625 10.625 -11.941406 10.625 -10.515625 C 10.625 -9.367188 10.1875 -8.296875 9.3125 -7.296875 C 8.445312 -6.296875 7.332031 -5.476562 5.96875 -4.84375 C 4.613281 -4.21875 3.257812 -3.832031 1.90625 -3.6875 C 1.8125 -3.289062 1.765625 -2.867188 1.765625 -2.421875 C 1.765625 -1.578125 1.972656 -0.875 2.390625 -0.3125 C 2.816406 0.25 3.53125 0.53125 4.53125 0.53125 C 5.96875 0.53125 7.410156 -0.0664062 8.859375 -1.265625 C 10.316406 -2.460938 11.5 -3.941406 12.40625 -5.703125 L 12.828125 -5.375 C 11.890625 -3.289062 10.585938 -1.613281 8.921875 -0.34375 C 7.265625 0.914062 5.554688 1.546875 3.796875 1.546875 Z M 2.078125 -4.359375 C 3.054688 -4.710938 4.082031 -5.203125 5.15625 -5.828125 C 6.238281 -6.460938 7.160156 -7.207031 7.921875 -8.0625 C 8.691406 -8.925781 9.078125 -9.828125 9.078125 -10.765625 C 9.078125 -11.046875 9.019531 -11.25 8.90625 -11.375 C 8.800781 -11.5 8.609375 -11.5625 8.328125 -11.5625 C 7.609375 -11.5625 6.816406 -11.195312 5.953125 -10.46875 C 5.097656 -9.75 4.3125 -8.828125 3.59375 -7.703125 C 2.882812 -6.578125 2.378906 -5.460938 2.078125 -4.359375 Z M 2.078125 -4.359375"/></g><g id="l"><path d="M 11.359375 0.703125 C 10.554688 0.703125 9.941406 0.492188 9.515625 0.078125 C 9.097656 -0.328125 8.890625 -0.867188 8.890625 -1.546875 C 8.890625 -1.847656 8.941406 -2.203125 9.046875 -2.609375 C 9.160156 -3.023438 9.273438 -3.429688 9.390625 -3.828125 C 9.523438 -4.253906 9.644531 -4.703125 9.75 -5.171875 C 9.863281 -5.640625 9.921875 -6.0625 9.921875 -6.4375 C 9.921875 -7.582031 9.453125 -8.15625 8.515625 -8.15625 C 7.617188 -8.15625 6.679688 -7.6875 5.703125 -6.75 C 4.734375 -5.8125 3.867188 -4.769531 3.109375 -3.625 C 2.347656 -2.476562 1.488281 -1.09375 0.53125 0.53125 C 0.125 0.53125 -0.238281 0.460938 -0.5625 0.328125 C -0.894531 0.203125 -1.15625 0.0078125 -1.34375 -0.25 C -1.34375 -0.363281 -1.1875 -0.785156 -0.875 -1.515625 C -0.289062 -3.015625 0.1875 -4.378906 0.5625 -5.609375 C 0.9375 -6.835938 1.132812 -7.929688 1.15625 -8.890625 C 1.320312 -9.078125 1.554688 -9.25 1.859375 -9.40625 C 2.171875 -9.5625 2.476562 -9.640625 2.78125 -9.640625 C 3.414062 -9.640625 3.734375 -9.332031 3.734375 -8.71875 C 3.734375 -8.363281 3.625 -7.75 3.40625 -6.875 C 3.195312 -6 2.929688 -5.066406 2.609375 -4.078125 C 3.734375 -5.816406 4.925781 -7.28125 6.1875 -8.46875 C 7.457031 -9.664062 8.703125 -10.265625 9.921875 -10.265625 C 10.785156 -10.265625 11.429688 -9.953125 11.859375 -9.328125 C 12.296875 -8.710938 12.515625 -7.972656 12.515625 -7.109375 C 12.515625 -6.585938 12.445312 -6.09375 12.3125 -5.625 C 12.1875 -5.15625 12 -4.617188 11.75 -4.015625 C 11.53125 -3.492188 11.363281 -3.046875 11.25 -2.671875 C 11.132812 -2.296875 11.078125 -1.921875 11.078125 -1.546875 C 11.078125 -0.660156 11.425781 -0.21875 12.125 -0.21875 C 12.925781 -0.21875 13.753906 -0.742188 14.609375 -1.796875 C 15.460938 -2.847656 16.273438 -4.148438 17.046875 -5.703125 L 17.4375 -5.234375 C 15.75 -1.273438 13.722656 0.703125 11.359375 0.703125 Z M 11.359375 0.703125"/></g><g id="m"><path d="M 2.984375 1.625 C 0.898438 1.625 -0.140625 0.460938 -0.140625 -1.859375 C -0.140625 -2.867188 0.0390625 -4.117188 0.40625 -5.609375 C 0.769531 -7.097656 1.269531 -8.675781 1.90625 -10.34375 C 1.34375 -10.4375 0.921875 -10.53125 0.640625 -10.625 L 0.640625 -11.25 C 1.484375 -11.15625 2 -11.109375 2.1875 -11.109375 C 3.21875 -13.785156 4.320312 -16.097656 5.5 -18.046875 C 6.6875 -20.003906 7.617188 -20.984375 8.296875 -20.984375 C 8.484375 -20.984375 8.648438 -20.910156 8.796875 -20.765625 C 8.953125 -20.628906 9.03125 -20.445312 9.03125 -20.21875 C 9.03125 -19.914062 8.882812 -19.46875 8.59375 -18.875 C 8.300781 -18.289062 7.804688 -17.390625 7.109375 -16.171875 C 6.984375 -15.941406 6.613281 -15.289062 6 -14.21875 C 5.394531 -13.15625 4.847656 -12.082031 4.359375 -11 L 5.65625 -11 C 7.601562 -11 9.28125 -11.070312 10.6875 -11.21875 L 10.6875 -10.578125 C 8.132812 -10.296875 6.070312 -10.15625 4.5 -10.15625 L 3.96875 -10.15625 C 2.6875 -7.207031 2.046875 -4.65625 2.046875 -2.5 C 2.046875 -1.488281 2.195312 -0.765625 2.5 -0.328125 C 2.800781 0.0976562 3.304688 0.3125 4.015625 0.3125 C 5.203125 0.3125 6.378906 -0.21875 7.546875 -1.28125 C 8.722656 -2.351562 9.769531 -3.828125 10.6875 -5.703125 L 11.140625 -5.34375 C 10.273438 -3.300781 9.101562 -1.628906 7.625 -0.328125 C 6.15625 0.972656 4.609375 1.625 2.984375 1.625 Z M 2.984375 1.625"/></g><g id="o"><path d="M 7.34375 3.0625 C 6.101562 3.0625 4.984375 2.710938 3.984375 2.015625 C 2.992188 1.328125 2.210938 0.320312 1.640625 -1 C 1.066406 -2.320312 0.78125 -3.875 0.78125 -5.65625 C 0.78125 -8.59375 1.515625 -11.59375 2.984375 -14.65625 C 4.460938 -17.726562 6.332031 -20.265625 8.59375 -22.265625 C 10.851562 -24.273438 13.0625 -25.28125 15.21875 -25.28125 C 16.46875 -25.28125 17.390625 -24.90625 17.984375 -24.15625 C 18.578125 -23.40625 18.875 -22.457031 18.875 -21.3125 C 18.875 -20.488281 18.734375 -19.675781 18.453125 -18.875 C 18.171875 -18.082031 17.789062 -17.429688 17.3125 -16.921875 C 16.832031 -16.421875 16.320312 -16.171875 15.78125 -16.171875 C 15.3125 -16.171875 14.953125 -16.441406 14.703125 -16.984375 C 15.046875 -17.210938 15.4375 -17.644531 15.875 -18.28125 C 16.3125 -18.914062 16.679688 -19.609375 16.984375 -20.359375 C 17.285156 -21.109375 17.4375 -21.773438 17.4375 -22.359375 C 17.4375 -22.921875 17.265625 -23.367188 16.921875 -23.703125 C 16.585938 -24.046875 16.054688 -24.21875 15.328125 -24.21875 C 13.710938 -24.21875 11.976562 -23.160156 10.125 -21.046875 C 8.269531 -18.941406 6.71875 -16.363281 5.46875 -13.3125 C 4.21875 -10.269531 3.59375 -7.484375 3.59375 -4.953125 C 3.59375 -2.867188 4.03125 -1.210938 4.90625 0.015625 C 5.78125 1.242188 6.910156 1.859375 8.296875 1.859375 C 9.472656 1.859375 10.578125 1.304688 11.609375 0.203125 C 12.640625 -0.890625 13.488281 -2.269531 14.15625 -3.9375 C 14.820312 -5.601562 15.210938 -7.222656 15.328125 -8.796875 C 13.972656 -9.097656 12.765625 -9.25 11.703125 -9.25 L 9.5625 -9.21875 C 9.84375 -10.4375 10.640625 -11.046875 11.953125 -11.046875 C 12.515625 -11.046875 13.082031 -10.960938 13.65625 -10.796875 C 14.226562 -10.628906 15.019531 -10.367188 16.03125 -10.015625 C 16.613281 -9.765625 17.234375 -9.554688 17.890625 -9.390625 L 17.65625 -8.265625 C 16.832031 -6.109375 16.265625 -4.378906 15.953125 -3.078125 C 15.648438 -1.773438 15.5 -0.644531 15.5 0.3125 C 15.5 0.6875 15.523438 1.226562 15.578125 1.9375 C 15.617188 2.40625 15.640625 2.78125 15.640625 3.0625 C 14.378906 2.570312 13.75 1.726562 13.75 0.53125 C 13.75 0.0078125 13.832031 -0.53125 14 -1.09375 C 12 1.675781 9.78125 3.0625 7.34375 3.0625 Z M 7.34375 3.0625"/></g><g id="p"><path d="M 5.203125 -20.25 C 4.804688 -20.488281 4.609375 -20.921875 4.609375 -21.546875 C 4.609375 -22.328125 4.84375 -23.148438 5.3125 -24.015625 C 5.78125 -24.878906 6.257812 -25.3125 6.75 -25.3125 C 6.988281 -25.3125 7.191406 -25.210938 7.359375 -25.015625 C 7.535156 -24.816406 7.625 -24.585938 7.625 -24.328125 C 7.132812 -23.816406 6.738281 -23.296875 6.4375 -22.765625 C 6.132812 -22.234375 5.875 -21.726562 5.65625 -21.25 C 5.445312 -20.769531 5.296875 -20.4375 5.203125 -20.25 Z M 5.203125 -20.25"/></g><g id="q"><path d="M 3.6875 1.796875 C 2.164062 1.796875 1.050781 1.335938 0.34375 0.421875 C -0.351562 -0.492188 -0.703125 -1.570312 -0.703125 -2.8125 C -0.703125 -3.75 -0.535156 -4.410156 -0.203125 -4.796875 C 0.117188 -5.179688 0.472656 -5.457031 0.859375 -5.625 C 1.242188 -5.789062 1.472656 -5.910156 1.546875 -5.984375 C 3.046875 -7.617188 4.207031 -9.316406 5.03125 -11.078125 L 5.03125 -11.5 C 5.03125 -12.289062 5.164062 -12.882812 5.4375 -13.28125 C 5.707031 -13.6875 6.03125 -13.890625 6.40625 -13.890625 C 6.59375 -13.890625 6.734375 -13.847656 6.828125 -13.765625 C 6.921875 -13.679688 6.96875 -13.570312 6.96875 -13.4375 C 6.96875 -13.34375 6.929688 -13.144531 6.859375 -12.84375 C 6.785156 -12.550781 6.75 -12.234375 6.75 -11.890625 C 6.75 -11.421875 6.8125 -10.921875 6.9375 -10.390625 C 7.070312 -9.859375 7.28125 -9.171875 7.5625 -8.328125 C 7.882812 -7.328125 8.132812 -6.453125 8.3125 -5.703125 C 8.488281 -4.953125 8.578125 -4.1875 8.578125 -3.40625 C 8.578125 -2.800781 8.507812 -2.226562 8.375 -1.6875 C 9.21875 -1.832031 10 -2.210938 10.71875 -2.828125 C 11.445312 -3.453125 12.140625 -4.394531 12.796875 -5.65625 L 13.109375 -5.3125 C 12.691406 -4.09375 12.046875 -3.128906 11.171875 -2.421875 C 10.304688 -1.722656 9.3125 -1.289062 8.1875 -1.125 C 7.84375 -0.164062 7.269531 0.554688 6.46875 1.046875 C 5.675781 1.546875 4.75 1.796875 3.6875 1.796875 Z M 6.15625 -1.71875 C 6.25 -2.332031 6.296875 -2.882812 6.296875 -3.375 C 6.296875 -4.082031 6.234375 -4.785156 6.109375 -5.484375 C 5.992188 -6.191406 5.820312 -7 5.59375 -7.90625 C 5.382812 -8.84375 5.253906 -9.453125 5.203125 -9.734375 C 4.003906 -7.765625 2.867188 -6.242188 1.796875 -5.171875 C 2.171875 -4.347656 2.738281 -3.617188 3.5 -2.984375 C 4.257812 -2.359375 5.144531 -1.9375 6.15625 -1.71875 Z M 3.765625 0.5625 C 4.835938 0.5625 5.578125 -0.0078125 5.984375 -1.15625 C 5.046875 -1.34375 4.1875 -1.710938 3.40625 -2.265625 C 2.632812 -2.816406 2.050781 -3.421875 1.65625 -4.078125 C 1.132812 -4.054688 0.875 -3.644531 0.875 -2.84375 C 0.875 -1.957031 1.140625 -1.164062 1.671875 -0.46875 C 2.203125 0.21875 2.898438 0.5625 3.765625 0.5625 Z M 3.765625 0.5625"/></g><g id="R"><path d="M 5.625 -4.375 L 5.578125 -6.4375 L 0.21875 -6.4375 L 0.21875 -6.140625 L 1.078125 -6.140625 L 1.078125 -0.296875 L 0.21875 -0.296875 L 0.21875 0 L 5.578125 0 L 5.625 -2.0625 L 5.3125 -2.0625 L 5.0625 -1.3125 C 4.875 -0.769531 4.578125 -0.441406 4.171875 -0.328125 C 4.046875 -0.304688 3.914062 -0.296875 3.78125 -0.296875 L 2.578125 -0.296875 L 2.578125 -3.15625 L 4.640625 -3.15625 L 4.640625 -3.46875 L 2.578125 -3.46875 L 2.578125 -6.140625 L 3.78125 -6.140625 C 4.375 -6.140625 4.78125 -5.863281 5 -5.3125 C 5.03125 -5.25 5.054688 -5.179688 5.078125 -5.109375 L 5.3125 -4.375 Z M 5.625 -4.375"/></g><g id="S"><path d="M 5.546875 -1.796875 C 5.546875 -2.390625 5.21875 -2.894531 4.5625 -3.3125 C 4.476562 -3.363281 4.101562 -3.566406 3.4375 -3.921875 C 2.84375 -4.234375 2.46875 -4.539062 2.3125 -4.84375 C 2.238281 -5 2.203125 -5.160156 2.203125 -5.328125 C 2.203125 -5.742188 2.410156 -6.019531 2.828125 -6.15625 C 2.960938 -6.195312 3.101562 -6.21875 3.25 -6.21875 C 3.832031 -6.21875 4.269531 -6 4.5625 -5.5625 C 4.75 -5.28125 4.84375 -4.945312 4.84375 -4.5625 L 5.265625 -4.5625 L 5.265625 -6.5 C 5.066406 -6.5 4.945312 -6.429688 4.90625 -6.296875 C 4.90625 -6.242188 4.90625 -6.1875 4.90625 -6.125 C 4.3125 -6.40625 3.6875 -6.546875 3.03125 -6.546875 C 2.164062 -6.546875 1.515625 -6.320312 1.078125 -5.875 C 0.796875 -5.570312 0.65625 -5.222656 0.65625 -4.828125 C 0.65625 -4.234375 0.992188 -3.722656 1.671875 -3.296875 C 1.753906 -3.242188 2.140625 -3.039062 2.828125 -2.6875 C 3.441406 -2.363281 3.828125 -2.054688 3.984375 -1.765625 C 4.046875 -1.617188 4.078125 -1.46875 4.078125 -1.3125 C 4.078125 -0.800781 3.847656 -0.460938 3.390625 -0.296875 C 3.222656 -0.234375 3.039062 -0.203125 2.84375 -0.203125 C 2.082031 -0.203125 1.550781 -0.550781 1.25 -1.25 C 1.113281 -1.539062 1.035156 -1.875 1.015625 -2.25 L 0.59375 -2.25 L 0.59375 0.015625 C 0.78125 0.015625 0.894531 -0.0390625 0.9375 -0.15625 C 0.945312 -0.21875 0.953125 -0.3125 0.953125 -0.4375 C 1.503906 -0.0703125 2.171875 0.109375 2.953125 0.109375 C 3.859375 0.109375 4.554688 -0.125 5.046875 -0.59375 C 5.378906 -0.914062 5.546875 -1.316406 5.546875 -1.796875 Z M 5.546875 -1.796875"/></g><g id="T"><path d="M 4.75 0 C 4.707031 -0.175781 4.613281 -0.273438 4.46875 -0.296875 L 3.734375 -0.296875 L 3.734375 -6.140625 L 3.921875 -6.140625 C 4.429688 -6.140625 4.796875 -5.910156 5.015625 -5.453125 C 5.054688 -5.359375 5.101562 -5.242188 5.15625 -5.109375 L 5.484375 -4.140625 L 5.796875 -4.140625 L 5.765625 -6.4375 L 0.203125 -6.4375 L 0.15625 -4.140625 L 0.484375 -4.140625 L 0.8125 -5.109375 C 0.96875 -5.566406 1.171875 -5.863281 1.421875 -6 C 1.597656 -6.09375 1.804688 -6.140625 2.046875 -6.140625 L 2.234375 -6.140625 L 2.234375 -0.296875 L 1.21875 -0.296875 L 1.21875 0 Z M 4.75 0"/></g><g id="U"><path d="M 1.78125 -0.703125 C 1.78125 -0.992188 1.644531 -1.21875 1.375 -1.375 C 1.257812 -1.425781 1.140625 -1.453125 1.015625 -1.453125 C 0.710938 -1.453125 0.492188 -1.316406 0.359375 -1.046875 C 0.296875 -0.929688 0.265625 -0.816406 0.265625 -0.703125 C 0.265625 -0.390625 0.398438 -0.164062 0.671875 -0.03125 C 0.785156 0.0195312 0.898438 0.046875 1.015625 0.046875 C 1.328125 0.046875 1.550781 -0.078125 1.6875 -0.328125 C 1.75 -0.441406 1.78125 -0.566406 1.78125 -0.703125 Z M 1.78125 -0.703125"/></g><g id="V"><path d="M 1 -1.078125 C 1 -1.367188 1.269531 -1.65625 1.8125 -1.9375 C 1.945312 -2.007812 2.160156 -2.113281 2.453125 -2.25 C 3.253906 -2.625 3.796875 -2.941406 4.078125 -3.203125 C 4.429688 -3.546875 4.609375 -3.921875 4.609375 -4.328125 C 4.609375 -5.046875 4.207031 -5.523438 3.40625 -5.765625 C 3.09375 -5.859375 2.753906 -5.90625 2.390625 -5.90625 C 1.585938 -5.90625 1.003906 -5.707031 0.640625 -5.3125 C 0.453125 -5.09375 0.359375 -4.84375 0.359375 -4.5625 C 0.359375 -4.1875 0.492188 -3.945312 0.765625 -3.84375 C 0.835938 -3.820312 0.910156 -3.8125 0.984375 -3.8125 C 1.367188 -3.8125 1.59375 -3.984375 1.65625 -4.328125 C 1.664062 -4.421875 1.675781 -4.554688 1.6875 -4.734375 C 1.695312 -5.128906 1.765625 -5.378906 1.890625 -5.484375 C 1.992188 -5.566406 2.132812 -5.609375 2.3125 -5.609375 C 2.726562 -5.609375 2.992188 -5.363281 3.109375 -4.875 C 3.140625 -4.726562 3.15625 -4.578125 3.15625 -4.421875 C 3.15625 -3.648438 2.882812 -3.0625 2.34375 -2.65625 C 2.25 -2.582031 1.945312 -2.394531 1.4375 -2.09375 C 0.957031 -1.800781 0.644531 -1.488281 0.5 -1.15625 C 0.382812 -0.914062 0.328125 -0.632812 0.328125 -0.3125 L 0.328125 0 L 4.6875 0 L 4.703125 -2.015625 L 4.453125 -2.015625 L 4.265625 -1.546875 C 4.148438 -1.285156 4.003906 -1.132812 3.828125 -1.09375 C 3.753906 -1.082031 3.632812 -1.078125 3.46875 -1.078125 Z M 1 -1.078125"/></g><g id="W"><path d="M 3.09375 -5.90625 C 2.125 -5.90625 1.394531 -5.539062 0.90625 -4.8125 C 0.550781 -4.28125 0.375 -3.648438 0.375 -2.921875 C 0.375 -1.773438 0.722656 -0.929688 1.421875 -0.390625 C 1.867188 -0.0546875 2.40625 0.109375 3.03125 0.109375 C 3.988281 0.109375 4.71875 -0.257812 5.21875 -1 C 5.550781 -1.507812 5.71875 -2.132812 5.71875 -2.875 C 5.71875 -4.09375 5.347656 -4.957031 4.609375 -5.46875 C 4.179688 -5.757812 3.675781 -5.90625 3.09375 -5.90625 Z M 3.0625 -0.1875 C 2.582031 -0.1875 2.257812 -0.476562 2.09375 -1.0625 C 1.976562 -1.476562 1.921875 -2.082031 1.921875 -2.875 C 1.921875 -4.332031 2.144531 -5.207031 2.59375 -5.5 C 2.71875 -5.570312 2.875 -5.609375 3.0625 -5.609375 C 3.59375 -5.609375 3.929688 -5.1875 4.078125 -4.34375 C 4.140625 -3.96875 4.171875 -3.492188 4.171875 -2.921875 C 4.171875 -1.554688 3.992188 -0.710938 3.640625 -0.390625 C 3.484375 -0.253906 3.289062 -0.1875 3.0625 -0.1875 Z M 3.0625 -0.1875"/></g></defs><path fill="#C4C4C4" d="M 186.765625 16.289062 C 88.804688 16.289062 9.390625 95.703125 9.390625 193.664062 C 9.390625 291.625 88.804688 371.039062 186.765625 371.039062 C 284.726562 371.039062 364.140625 291.625 364.140625 193.664062 C 364.140625 95.703125 284.726562 16.289062 186.765625 16.289062 Z M 186.765625 16.289062"/><g><use x="186.772" y="292.049" xmlns:xlink="http://www.w3.org/1999/xlink" xlink:href="#a" xlink:type="simple" xlink:actuate="onLoad" xlink:show="embed"/></g><g><use x="112.039" y="333.654" xmlns:xlink="http://www.w3.org/1999/xlink" xlink:href="#b" xlink:type="simple" xlink:actuate="onLoad" xlink:show="embed"/></g><g><use x="132.353" y="333.654" xmlns:xlink="http://www.w3.org/1999/xlink" xlink:href="#c" xlink:type="simple" xlink:actuate="onLoad" xlink:show="embed"/></g><g><use x="155.925" y="333.654" xmlns:xlink="http://www.w3.org/1999/xlink" xlink:href="#d" xlink:type="simple" xlink:actuate="onLoad" xlink:show="embed"/></g><g><use x="177.83" y="333.654" xmlns:xlink="http://www.w3.org/1999/xlink" xlink:href="#c" xlink:type="simple" xlink:actuate="onLoad" xlink:show="embed"/></g><g><use x="201.402" y="333.654" xmlns:xlink="http://www.w3.org/1999/xlink" xlink:href="#e" xlink:type="simple" xlink:actuate="onLoad" xlink:show="embed"/></g><g><use x="225.644" y="333.654" xmlns:xlink="http://www.w3.org/1999/xlink" xlink:href="#f" xlink:type="simple" xlink:actuate="onLoad" xlink:show="embed"/></g><g><use x="249.842" y="333.654" xmlns:xlink="http://www.w3.org/1999/xlink" xlink:href="#c" xlink:type="simple" xlink:actuate="onLoad" xlink:show="embed"/></g><g clip-path="url(#g)"><path d="M 234.125 236.328125 C 232.398438 223.191406 226.238281 204.347656 226.730469 198.148438 C 227.222656 191.949219 225.988281 182.773438 224.019531 178.808594 C 222.046875 174.84375 221.058594 169.386719 221.058594 169.386719 C 221.058594 169.386719 218.101562 187.980469 211.449219 187.980469 C 204.789062 187.980469 201.832031 184.015625 195.671875 184.015625 C 189.507812 184.015625 190.742188 188.972656 187.289062 188.972656 C 187.039062 188.972656 186.828125 188.996094 186.640625 189.035156 C 186.453125 188.996094 186.238281 188.972656 185.992188 188.972656 C 182.539062 188.972656 183.773438 184.015625 177.609375 184.015625 C 171.445312 184.015625 168.488281 187.980469 161.832031 187.980469 C 155.179688 187.980469 152.21875 169.386719 152.21875 169.386719 C 152.21875 169.386719 151.234375 174.84375 149.261719 178.808594 C 147.289062 182.777344 146.058594 191.949219 146.550781 198.148438 C 147.042969 204.347656 140.878906 223.191406 139.15625 236.328125 C 137.429688 249.472656 151.972656 254.925781 164.050781 263.105469 C 172.375 268.742188 180.691406 270.96875 185.066406 271.804688 C 185.066406 271.804688 186.648438 272.199219 188.214844 271.804688 C 192.585938 270.96875 200.90625 268.742188 209.226562 263.105469 C 221.308594 254.925781 235.851562 249.472656 234.125 236.328125 Z M 197.644531 203.105469 C 194.621094 203.105469 190.574219 202.1875 188.296875 201.601562 C 188.269531 201.324219 185.867188 201.125 184.984375 201.601562 C 182.707031 202.1875 178.660156 203.105469 175.636719 203.105469 C 171.199219 203.105469 171.570312 192.074219 172.433594 191.203125 C 173.296875 190.335938 175.390625 193.1875 177.117188 194.179688 C 178.84375 195.171875 180.566406 193.1875 182.539062 192.195312 C 184.0625 191.429688 185.730469 192.289062 186.410156 192.722656 C 186.496094 192.859375 186.550781 192.941406 186.550781 192.941406 C 186.550781 192.941406 186.582031 192.914062 186.640625 192.875 C 186.699219 192.914062 186.730469 192.941406 186.730469 192.941406 C 186.730469 192.941406 186.785156 192.859375 186.871094 192.722656 C 187.550781 192.289062 189.21875 191.429688 190.742188 192.195312 C 192.714844 193.1875 194.4375 195.171875 196.164062 194.179688 C 197.886719 193.1875 200.171875 190.957031 200.847656 191.203125 C 201.523438 191.453125 202.082031 203.105469 197.644531 203.105469 Z M 197.644531 203.105469"/></g><g><use x="127.356" y="160.854" xmlns:xlink="http://www.w3.org/1999/xlink" xlink:href="#h" xlink:type="simple" xlink:actuate="onLoad" xlink:show="embed"/></g><g><use x="146.194" y="160.854" xmlns:xlink="http://www.w3.org/1999/xlink" xlink:href="#i" xlink:type="simple" xlink:actuate="onLoad" xlink:show="embed"/></g><g><use x="154.664" y="160.854" xmlns:xlink="http://www.w3.org/1999/xlink" xlink:href="#j" xlink:type="simple" xlink:actuate="onLoad" xlink:show="embed"/></g><g><use x="162.959" y="160.854" xmlns:xlink="http://www.w3.org/1999/xlink" xlink:href="#k" xlink:type="simple" xlink:actuate="onLoad" xlink:show="embed"/></g><g><use x="174.663" y="160.854" xmlns:xlink="http://www.w3.org/1999/xlink" xlink:href="#l" xlink:type="simple" xlink:actuate="onLoad" xlink:show="embed"/></g><g><use x="191.041" y="160.854" xmlns:xlink="http://www.w3.org/1999/xlink" xlink:href="#m" xlink:type="simple" xlink:actuate="onLoad" xlink:show="embed"/></g><g><use x="201.057" y="160.854" xmlns:xlink="http://www.w3.org/1999/xlink" xlink:href="#n" xlink:type="simple" xlink:actuate="onLoad" xlink:show="embed"/></g><g><use x="210.196" y="160.854" xmlns:xlink="http://www.w3.org/1999/xlink" xlink:href="#o" xlink:type="simple" xlink:actuate="onLoad" xlink:show="embed"/></g><g><use x="229.667" y="160.854" xmlns:xlink="http://www.w3.org/1999/xlink" xlink:href="#p" xlink:type="simple" xlink:actuate="onLoad" xlink:show="embed"/></g><g><use x="234.06" y="160.854" xmlns:xlink="http://www.w3.org/1999/xlink" xlink:href="#q" xlink:type="simple" xlink:actuate="onLoad" xlink:show="embed"/></g><g><use x="187.265" y="119.221" xmlns:xlink="http://www.w3.org/1999/xlink" xlink:href="#r" xlink:type="simple" xlink:actuate="onLoad" xlink:show="embed"/></g><g><use x="187.005" y="189.276" xmlns:xlink="http://www.w3.org/1999/xlink" xlink:href="#s" xlink:type="simple" xlink:actuate="onLoad" xlink:show="embed"/></g><g clip-path="url(#t)"><path d="M 124.546875 156.671875 C 120.457031 156.371094 117.121094 156.140625 114.472656 156.21875 C 111.289062 156.21875 108.789062 156.519531 107.273438 156.671875 C 105.609375 156.976562 104.625 157.203125 104.625 157.203125 C 102.957031 157.660156 101.0625 156.976562 100.535156 155.839844 L 100.535156 154.546875 C 100.835938 153.863281 101.519531 153.410156 102.425781 153.183594 C 103.183594 152.953125 103.941406 152.953125 104.625 153.183594 C 104.699219 153.183594 105.683594 153.484375 107.351562 153.714844 C 108.867188 153.941406 111.289062 154.167969 114.546875 154.167969 C 117.199219 154.167969 120.457031 154.015625 124.621094 153.714844 C 126.136719 153.5625 127.652344 153.410156 129.167969 153.257812 L 129.015625 151.738281 C 127.5 151.890625 125.984375 152.042969 124.546875 152.195312 C 120.378906 152.5 117.121094 152.652344 114.546875 152.574219 C 111.441406 152.574219 109.015625 152.269531 107.578125 152.121094 C 105.910156 151.890625 105.003906 151.589844 105.003906 151.589844 C 104.019531 151.359375 103.03125 151.359375 102.046875 151.589844 C 101.441406 151.738281 100.988281 151.96875 100.535156 152.269531 C 100.230469 149.613281 98.035156 147.488281 95.230469 147.488281 L 83.71875 147.488281 C 82.582031 146.425781 81.21875 145.820312 79.324219 145.820312 C 78.1875 145.820312 77.125 146.046875 76.066406 146.503906 L 75.992188 146.503906 C 75.082031 146.046875 74.097656 145.746094 72.886719 145.746094 C 71.75 145.746094 70.6875 145.972656 69.628906 146.425781 L 69.550781 146.425781 C 68.644531 145.972656 67.65625 145.667969 66.445312 145.667969 C 65.308594 145.820312 64.25 146.046875 63.1875 146.503906 L 61.75 147.1875 L 62.355469 147.488281 L 60.917969 147.488281 L 60.917969 149.007812 L 64.550781 149.007812 C 65.308594 149.84375 65.914062 150.90625 66.445312 152.195312 L 60.917969 152.195312 L 60.917969 153.714844 L 67.050781 153.714844 C 67.28125 154.246094 67.429688 154.851562 67.65625 155.457031 C 67.886719 156.066406 68.035156 156.597656 68.265625 157.203125 L 60.917969 157.203125 L 60.917969 158.722656 L 68.945312 158.722656 C 69.476562 159.859375 70.007812 160.921875 70.765625 161.910156 L 60.917969 161.910156 L 60.917969 163.429688 L 67.128906 163.429688 C 66.976562 163.578125 66.902344 163.730469 66.902344 163.960938 L 66.902344 204.488281 C 66.902344 204.867188 67.203125 205.246094 67.65625 205.246094 C 68.035156 205.246094 68.414062 204.867188 68.414062 204.488281 L 68.414062 163.882812 C 68.414062 163.65625 68.265625 163.429688 68.113281 163.351562 L 72.277344 163.351562 C 72.886719 163.730469 73.566406 164.109375 74.324219 164.261719 L 74.324219 184.527344 C 74.324219 184.90625 74.703125 185.285156 75.082031 185.285156 C 75.460938 185.285156 75.839844 184.90625 75.839844 184.527344 L 75.839844 164.414062 C 75.914062 164.414062 75.992188 164.414062 75.992188 164.414062 C 77.125 164.414062 78.1875 164.1875 79.246094 163.730469 L 79.324219 163.730469 C 80.003906 164.109375 80.839844 164.339844 81.746094 164.414062 L 81.746094 178.683594 C 81.746094 179.136719 82.125 179.441406 82.503906 179.441406 C 82.960938 179.441406 83.261719 179.136719 83.261719 178.683594 L 83.261719 164.339844 C 84.09375 164.261719 84.929688 164.035156 85.6875 163.65625 L 85.761719 163.65625 C 86.671875 164.109375 87.65625 164.414062 88.867188 164.414062 C 90.003906 164.414062 91.066406 164.1875 92.125 163.730469 L 93.035156 163.351562 L 95.15625 163.351562 C 98.035156 163.351562 100.382812 161 100.382812 158.113281 C 101.214844 158.644531 102.277344 159.027344 103.410156 159.027344 C 103.941406 159.027344 104.394531 158.949219 104.925781 158.796875 C 104.925781 158.796875 105.910156 158.570312 107.503906 158.265625 C 108.941406 158.039062 111.367188 157.8125 114.472656 157.8125 C 117.046875 157.8125 120.304688 157.964844 124.394531 158.265625 C 125.683594 158.34375 127.195312 158.496094 128.863281 158.722656 L 129.015625 157.203125 C 127.347656 156.976562 125.910156 156.824219 124.546875 156.671875 Z M 75.992188 162.898438 C 71.976562 162.898438 70.535156 158.949219 69.097656 154.851562 C 68.113281 152.042969 67.050781 149.234375 65.160156 147.488281 C 65.613281 147.414062 65.992188 147.339844 66.445312 147.339844 C 70.460938 147.339844 71.898438 151.207031 73.339844 155.382812 C 74.324219 158.191406 75.382812 161 77.277344 162.746094 C 76.898438 162.820312 76.445312 162.898438 75.992188 162.898438 Z M 82.429688 162.898438 C 78.414062 162.898438 76.976562 158.949219 75.535156 154.851562 C 74.550781 152.042969 73.492188 149.234375 71.597656 147.488281 C 72.050781 147.414062 72.429688 147.339844 72.886719 147.339844 C 76.898438 147.339844 78.339844 151.207031 79.777344 155.382812 C 80.761719 158.191406 81.824219 161 83.71875 162.746094 C 83.339844 162.820312 82.882812 162.898438 82.429688 162.898438 Z M 88.867188 162.898438 C 84.851562 162.898438 83.414062 158.949219 81.976562 154.851562 C 80.988281 152.042969 79.929688 149.234375 78.035156 147.488281 C 78.492188 147.414062 78.867188 147.339844 79.324219 147.339844 C 83.339844 147.339844 84.777344 151.207031 86.214844 155.382812 C 87.203125 158.191406 88.261719 161 90.15625 162.746094 C 89.777344 162.820312 89.324219 162.898438 88.867188 162.898438 Z M 98.941406 154.320312 C 98.792969 154.925781 98.792969 155.457031 98.941406 156.066406 L 98.941406 158.039062 C 98.941406 160.089844 97.277344 161.757812 95.230469 161.757812 L 91.367188 161.757812 C 90.457031 161 89.777344 159.859375 89.171875 158.570312 L 90.308594 158.570312 L 90.308594 157.050781 L 88.566406 157.050781 C 88.261719 156.292969 88.035156 155.609375 87.730469 154.777344 C 87.582031 154.394531 87.429688 153.941406 87.277344 153.5625 L 90.308594 153.5625 L 90.308594 152.042969 L 86.671875 152.042969 C 86.214844 150.90625 85.6875 149.84375 85.003906 148.855469 L 95.230469 148.855469 C 97.277344 148.855469 98.941406 150.527344 98.941406 152.574219 Z M 98.941406 154.320312"/></g><path d="M 151.066406 97.070312 C 151.421875 97.054688 151.691406 100.546875 151.742188 101.46875 C 152.1875 109.539062 151.203125 117.753906 147.753906 126.710938 C 157.753906 130.78125 170.011719 131.367188 180.847656 130.574219 C 184.050781 130.339844 187.339844 129.996094 190.722656 129.617188 C 202.171875 128.328125 211.519531 128.089844 223.140625 128.929688 C 223.140625 128.925781 223.140625 128.925781 223.136719 128.925781 C 217.160156 116.714844 216.257812 107.164062 219.59375 94.007812 C 205.082031 96.242188 186.277344 101.050781 171.558594 99.710938 C 164.589844 99.074219 156.527344 96.730469 151.199219 93.328125 C 149.433594 92.203125 149.578125 91.996094 151.519531 92.667969 C 158.324219 95.015625 163.574219 96.707031 171.738281 97.039062 C 178.96875 97.335938 186 96.242188 193.292969 94.960938 C 203.0625 93.234375 211.457031 92.496094 221.457031 92.3125 C 220.335938 103.101562 222.019531 119.929688 225.167969 130.316406 C 225.167969 130.320312 225.167969 130.320312 225.171875 130.324219 C 210.46875 131.1875 195.613281 133.765625 181.105469 134.589844 C 167.605469 135.359375 157.808594 134.246094 145.660156 127.59375 C 148.292969 118.886719 149.898438 108.988281 150.511719 101.453125 C 150.589844 100.523438 150.785156 97.082031 151.066406 97.070312 Z M 151.066406 97.070312"/><g clip-path="url(#u)"><path d="M 220.277344 91.464844 C 220.207031 91.4375 220.179688 91.296875 220.203125 91.050781 C 220.226562 90.804688 220.308594 90.453125 220.46875 90.011719 C 220.632812 89.566406 220.878906 89.03125 221.242188 88.4375 C 221.605469 87.84375 222.09375 87.1875 222.738281 86.535156 C 223.6875 85.597656 224.929688 84.695312 226.410156 83.882812 C 227.152344 83.476562 227.949219 83.089844 228.777344 82.703125 C 229.605469 82.316406 230.46875 81.9375 231.324219 81.53125 C 232.652344 80.875 234.035156 80.097656 235.421875 79.175781 C 236.808594 78.253906 238.199219 77.191406 239.527344 75.96875 C 240.855469 74.742188 242.117188 73.355469 243.222656 71.804688 C 244.324219 70.25 245.277344 68.53125 245.960938 66.636719 C 247.109375 63.535156 247.589844 59.984375 246.941406 56.546875 C 246.339844 53.347656 244.761719 50.171875 242.285156 47.898438 C 241.730469 47.375 241.117188 46.898438 240.46875 46.464844 C 238.394531 45.078125 235.960938 44.203125 233.507812 43.742188 C 230.097656 43.109375 226.582031 43.332031 223.230469 43.902344 C 221.285156 44.234375 219.390625 44.699219 217.542969 45.214844 C 215.691406 45.730469 213.886719 46.304688 212.117188 46.863281 C 210.351562 47.425781 208.621094 47.976562 206.933594 48.476562 C 205.246094 48.972656 203.601562 49.414062 202 49.773438 C 198.699219 50.515625 195.648438 50.898438 192.964844 51.054688 C 190.277344 51.214844 187.957031 51.15625 186.066406 51.003906 C 184.179688 50.855469 182.71875 50.613281 181.742188 50.382812 C 180.765625 50.15625 180.261719 49.9375 180.28125 49.773438 C 180.296875 49.609375 180.828125 49.511719 181.8125 49.433594 C 182.800781 49.355469 184.242188 49.292969 186.078125 49.164062 C 187.914062 49.039062 190.140625 48.835938 192.691406 48.445312 C 195.238281 48.058594 198.105469 47.476562 201.179688 46.585938 C 202.675781 46.152344 204.226562 45.640625 205.839844 45.074219 C 207.457031 44.507812 209.140625 43.886719 210.894531 43.253906 C 212.652344 42.621094 214.484375 41.972656 216.40625 41.375 C 218.332031 40.777344 220.34375 40.226562 222.46875 39.804688 C 226.136719 39.070312 230.152344 38.773438 234.257812 39.464844 C 237.238281 39.960938 240.234375 41.046875 242.898438 42.828125 C 243.726562 43.386719 244.519531 44.007812 245.265625 44.6875 C 248.5 47.722656 250.46875 51.742188 251.148438 55.804688 C 251.507812 57.976562 251.519531 60.140625 251.257812 62.210938 C 250.992188 64.28125 250.449219 66.265625 249.699219 68.097656 C 248.777344 70.320312 247.585938 72.300781 246.242188 74.042969 C 244.898438 75.792969 243.402344 77.308594 241.851562 78.609375 C 240.296875 79.914062 238.695312 81.003906 237.105469 81.914062 C 235.515625 82.824219 233.945312 83.550781 232.453125 84.125 C 231.507812 84.5 230.601562 84.816406 229.761719 85.109375 C 228.914062 85.410156 228.128906 85.6875 227.410156 85.976562 C 225.972656 86.554688 224.808594 87.175781 223.894531 87.859375 C 223.261719 88.320312 222.738281 88.804688 222.308594 89.253906 C 221.878906 89.699219 221.539062 90.109375 221.265625 90.453125 C 220.71875 91.132812 220.425781 91.523438 220.277344 91.464844 Z M 220.277344 91.464844"/></g><path d="M 199.414062 46.003906 C 199.34375 46.363281 197.570312 46.351562 194.496094 46.164062 C 191.421875 45.976562 187.042969 45.636719 181.75 45.464844 C 178.316406 45.359375 174.492188 45.3125 170.464844 45.570312 C 166.429688 45.828125 162.195312 46.386719 157.984375 47.585938 C 157.480469 47.726562 156.980469 47.878906 156.484375 48.039062 C 154.214844 48.777344 152.039062 49.6875 150.027344 50.734375 C 148.019531 51.78125 146.167969 52.964844 144.519531 54.238281 C 142.871094 55.511719 141.417969 56.875 140.1875 58.28125 C 138.949219 59.6875 137.921875 61.132812 137.089844 62.570312 C 136.039062 64.355469 135.285156 66.113281 134.738281 67.707031 C 134.183594 69.300781 133.835938 70.730469 133.585938 71.917969 C 133.332031 73.109375 133.175781 74.054688 133.035156 74.707031 C 132.886719 75.359375 132.753906 75.714844 132.585938 75.722656 C 132.425781 75.730469 132.238281 75.390625 132.078125 74.71875 C 131.914062 74.046875 131.773438 73.046875 131.753906 71.746094 C 131.738281 70.449219 131.839844 68.847656 132.199219 67.03125 C 132.558594 65.210938 133.171875 63.167969 134.171875 61.039062 C 134.980469 59.34375 136.027344 57.617188 137.324219 55.933594 C 138.617188 54.25 140.167969 52.613281 141.957031 51.089844 C 143.746094 49.566406 145.773438 48.160156 147.988281 46.933594 C 150.207031 45.710938 152.617188 44.671875 155.144531 43.867188 C 155.691406 43.695312 156.242188 43.53125 156.796875 43.375 C 161.421875 42.082031 165.996094 41.539062 170.265625 41.402344 C 174.53125 41.261719 178.496094 41.523438 182 41.90625 C 187.398438 42.484375 191.796875 43.359375 194.820312 44.15625 C 197.839844 44.945312 199.484375 45.644531 199.414062 46.003906 Z M 199.414062 46.003906"/><g clip-path="url(#v)"><path d="M 132.441406 63.546875 C 132.503906 63.6875 132.25 63.964844 131.722656 64.375 C 131.199219 64.785156 130.402344 65.324219 129.402344 66.03125 C 128.40625 66.734375 127.199219 67.609375 125.867188 68.683594 C 124.539062 69.761719 123.085938 71.046875 121.601562 72.574219 C 120.257812 73.972656 118.878906 75.578125 117.667969 77.394531 C 116.449219 79.214844 115.402344 81.246094 114.796875 83.503906 C 114.265625 85.441406 114.03125 87.53125 114.304688 89.585938 C 114.5625 91.515625 115.238281 93.449219 116.390625 95.039062 C 116.878906 95.738281 117.46875 96.382812 118.140625 96.953125 C 120.070312 98.601562 122.570312 99.621094 125.03125 100.015625 C 126.871094 100.308594 128.734375 100.246094 130.53125 99.957031 C 132.332031 99.667969 134.070312 99.15625 135.691406 98.527344 C 138.847656 97.28125 141.535156 95.527344 143.703125 93.707031 C 145.875 91.882812 147.539062 89.984375 148.796875 88.324219 C 150.054688 86.664062 150.921875 85.238281 151.535156 84.265625 C 152.15625 83.285156 152.539062 82.757812 152.738281 82.828125 C 152.9375 82.894531 152.945312 83.5625 152.664062 84.730469 C 152.386719 85.902344 151.808594 87.582031 150.746094 89.566406 C 149.679688 91.550781 148.113281 93.835938 145.886719 96.070312 C 143.664062 98.304688 140.773438 100.484375 137.21875 102.105469 C 135.410156 102.941406 133.402344 103.625 131.25 104.03125 C 129.097656 104.441406 126.800781 104.570312 124.433594 104.273438 C 121.214844 103.871094 117.941406 102.546875 115.296875 100.257812 C 114.375 99.464844 113.546875 98.566406 112.832031 97.578125 C 111.21875 95.28125 110.324219 92.65625 110.058594 90.078125 C 109.777344 87.34375 110.144531 84.699219 110.90625 82.332031 C 111.804688 79.59375 113.15625 77.25 114.65625 75.253906 C 116.160156 73.257812 117.816406 71.605469 119.414062 70.242188 C 121.15625 68.746094 122.859375 67.550781 124.414062 66.609375 C 125.964844 65.664062 127.375 64.972656 128.546875 64.480469 C 129.726562 63.984375 130.671875 63.6875 131.335938 63.542969 C 132 63.394531 132.378906 63.402344 132.441406 63.546875 Z M 132.441406 63.546875"/></g><path d="M 212.285156 87.789062 C 212.03125 87.773438 211.8125 87.433594 211.640625 86.808594 C 211.46875 86.183594 211.347656 85.277344 211.328125 84.136719 C 211.289062 81.851562 211.660156 78.628906 212.808594 75.089844 C 213.285156 73.613281 213.898438 72.089844 214.648438 70.574219 C 215.734375 68.371094 217.007812 66.398438 218.3125 64.722656 C 219.617188 63.050781 220.953125 61.679688 222.164062 60.636719 C 223.378906 59.59375 224.457031 58.871094 225.273438 58.46875 C 226.09375 58.0625 226.644531 57.972656 226.84375 58.199219 C 227.042969 58.425781 226.875 58.949219 226.4375 59.714844 C 226.007812 60.480469 225.308594 61.488281 224.464844 62.714844 C 223.621094 63.945312 222.636719 65.394531 221.621094 67.039062 C 220.605469 68.683594 219.5625 70.523438 218.582031 72.511719 C 217.902344 73.882812 217.300781 75.234375 216.773438 76.53125 C 215.496094 79.652344 214.632812 82.480469 213.964844 84.519531 C 213.628906 85.539062 213.339844 86.363281 213.066406 86.929688 C 212.792969 87.496094 212.535156 87.804688 212.285156 87.789062 Z M 212.285156 87.789062"/><path d="M 198.222656 89.660156 C 197.972656 89.710938 197.664062 89.441406 197.332031 88.882812 C 197 88.328125 196.640625 87.476562 196.320312 86.375 C 196.003906 85.277344 195.726562 83.921875 195.554688 82.378906 C 195.386719 80.832031 195.332031 79.089844 195.445312 77.230469 C 195.539062 75.785156 195.734375 74.269531 196.050781 72.734375 C 196.535156 70.367188 197.265625 68.171875 198.101562 66.261719 C 198.941406 64.351562 199.886719 62.722656 200.792969 61.4375 C 201.699219 60.15625 202.5625 59.214844 203.253906 58.636719 C 203.9375 58.058594 204.449219 57.84375 204.695312 58.015625 C 204.945312 58.191406 204.910156 58.730469 204.683594 59.566406 C 204.453125 60.398438 204.035156 61.523438 203.53125 62.894531 C 203.027344 64.261719 202.445312 65.878906 201.882812 67.683594 C 201.320312 69.492188 200.78125 71.492188 200.34375 73.613281 C 200.058594 74.996094 199.835938 76.34375 199.660156 77.636719 C 199.214844 80.964844 199.109375 83.910156 198.992188 86.054688 C 198.933594 87.128906 198.871094 88.003906 198.753906 88.621094 C 198.640625 89.242188 198.46875 89.609375 198.222656 89.660156 Z M 198.222656 89.660156"/><path d="M 160.722656 90.234375 C 160.226562 90.132812 159.953125 89.253906 159.742188 87.929688 C 159.527344 86.601562 159.351562 84.816406 159.03125 82.820312 C 158.90625 82.042969 158.761719 81.234375 158.589844 80.402344 C 158.0625 77.847656 157.367188 75.570312 156.886719 73.835938 C 156.648438 72.964844 156.464844 72.230469 156.410156 71.660156 C 156.351562 71.09375 156.417969 70.695312 156.667969 70.519531 C 156.914062 70.347656 157.320312 70.417969 157.835938 70.730469 C 158.351562 71.039062 158.976562 71.589844 159.621094 72.371094 C 160.261719 73.15625 160.921875 74.171875 161.503906 75.378906 C 162.078125 76.589844 162.566406 77.996094 162.882812 79.515625 C 163.085938 80.503906 163.207031 81.480469 163.246094 82.414062 C 163.351562 84.804688 162.949219 86.867188 162.410156 88.25 C 162.140625 88.941406 161.835938 89.460938 161.542969 89.800781 C 161.25 90.136719 160.96875 90.285156 160.722656 90.234375 Z M 160.722656 90.234375"/><path d="M 177.515625 88.707031 C 177.269531 88.644531 177.117188 88.273438 177.027344 87.648438 C 176.933594 87.027344 176.898438 86.160156 176.863281 85.089844 C 176.796875 82.953125 176.726562 80.019531 176.226562 76.722656 C 176.023438 75.351562 175.742188 73.921875 175.375 72.457031 C 174.839844 70.332031 174.171875 68.34375 173.46875 66.5625 C 172.765625 64.78125 172.03125 63.203125 171.386719 61.875 C 170.738281 60.542969 170.183594 59.457031 169.851562 58.644531 C 169.519531 57.835938 169.414062 57.296875 169.640625 57.089844 C 169.863281 56.890625 170.402344 57.046875 171.167969 57.558594 C 171.929688 58.066406 172.914062 58.933594 173.964844 60.15625 C 175.019531 61.382812 176.132812 62.96875 177.136719 64.867188 C 178.136719 66.765625 179.019531 68.980469 179.625 71.390625 C 180.039062 73.050781 180.300781 74.691406 180.417969 76.257812 C 180.5625 78.136719 180.507812 79.894531 180.328125 81.457031 C 180.148438 83.011719 179.84375 84.371094 179.5 85.46875 C 179.15625 86.566406 178.773438 87.410156 178.421875 87.957031 C 178.070312 88.503906 177.757812 88.765625 177.515625 88.707031 Z M 177.515625 88.707031"/><g clip-path="url(#w)"><path d="M 215.839844 161.214844 C 218.765625 161.214844 221.144531 158.851562 221.144531 155.945312 C 221.144531 153.042969 218.765625 150.679688 215.839844 150.679688 L 213.511719 150.679688 L 213.511719 161.214844 Z M 239.660156 158.257812 L 278.371094 158.257812 C 279.652344 158.257812 280.695312 157.21875 280.695312 155.945312 C 280.695312 154.671875 279.652344 153.632812 278.371094 153.632812 L 239.660156 153.632812 C 238.375 153.632812 237.332031 154.671875 237.332031 155.945312 C 237.332031 157.21875 238.375 158.257812 239.660156 158.257812 Z M 200.300781 161.859375 C 200.300781 161.503906 200.59375 161.214844 200.953125 161.214844 L 212.210938 161.214844 L 212.210938 158.5625 L 200.953125 158.5625 C 200.59375 158.5625 200.300781 158.273438 200.300781 157.917969 C 200.300781 157.558594 200.59375 157.273438 200.953125 157.273438 L 212.210938 157.273438 L 212.210938 154.621094 L 200.953125 154.621094 C 200.59375 154.621094 200.300781 154.332031 200.300781 153.976562 C 200.300781 153.617188 200.59375 153.328125 200.953125 153.328125 L 212.210938 153.328125 L 212.210938 150.679688 L 200.953125 150.679688 C 200.59375 150.679688 200.300781 150.390625 200.300781 150.03125 C 200.300781 149.675781 200.59375 149.386719 200.953125 149.386719 L 215.839844 149.386719 C 219.261719 149.386719 222.085938 151.984375 222.414062 155.300781 L 236.09375 155.300781 C 236.402344 153.621094 237.882812 152.34375 239.660156 152.34375 L 278.371094 152.34375 C 280.371094 152.34375 281.996094 153.960938 281.996094 155.945312 C 281.996094 157.933594 280.371094 159.546875 278.371094 159.546875 L 239.660156 159.546875 C 237.882812 159.546875 236.402344 158.269531 236.09375 156.59375 L 222.414062 156.59375 C 222.085938 159.90625 219.261719 162.503906 215.839844 162.503906 L 200.953125 162.503906 C 200.59375 162.503906 200.300781 162.214844 200.300781 161.859375"/></g><g clip-path="url(#x)"><g clip-path="url(#y)"><g clip-path="url(#z)"><path d="M 197.097656 278.03125 C 197.089844 278.011719 197.085938 277.996094 197.082031 277.976562 C 196.597656 276.289062 199.335938 277.699219 203.183594 277.167969 C 203.191406 276.605469 199.300781 276.121094 191.644531 274.898438 C 191.042969 274.800781 190.730469 274.726562 190.277344 274.597656 C 186.953125 273.46875 185.25 273.144531 182.324219 273.101562 C 181.324219 273.191406 180.363281 273.222656 179.441406 273.21875 C 178.851562 273.007812 178.253906 272.808594 177.65625 272.625 C 175.847656 272.0625 174 271.636719 172.140625 271.289062 C 170.277344 270.964844 168.402344 270.714844 166.511719 270.605469 C 164.621094 270.492188 162.722656 270.480469 160.828125 270.683594 C 162.675781 271.140625 164.519531 271.488281 166.355469 271.835938 L 167.503906 272.046875 C 169.402344 272.5625 173.105469 273.574219 173.15625 273.605469 C 173.789062 273.984375 173.800781 274.375 173.75 274.636719 C 173.554688 275.683594 172.09375 276.421875 170.917969 277.015625 C 170.394531 277.277344 168.472656 278.136719 165.050781 281.585938 L 165.589844 281.296875 C 168.066406 279.941406 171.464844 278.09375 174.96875 276.5 L 175.398438 276.304688 C 176.910156 275.609375 178.105469 275.058594 179.84375 274.898438 C 184.699219 274.445312 188.835938 275.746094 192.582031 277.222656 L 193.277344 277.5 C 193.890625 277.75 194.609375 278.015625 195.378906 278.277344 C 195.816406 278.5 196.257812 278.714844 196.703125 278.929688 C 198.011719 279.535156 202.867188 282.15625 204.347656 281.9375 C 203.699219 280.933594 197.125 278.105469 197.097656 278.03125"/></g></g></g><g clip-path="url(#A)"><g clip-path="url(#B)"><g clip-path="url(#C)"><g clip-path="url(#D)"><g clip-path="url(#E)"><path d="M 207.132812 301.148438 C 205.976562 302.140625 200.652344 299.585938 198.871094 298.515625 C 187.128906 291.46875 190.511719 279.523438 183.96875 279.625 C 178.226562 279.710938 180.058594 288.15625 167.097656 299.535156 C 160.910156 304.964844 156.277344 302.433594 156.640625 301.753906 C 158.480469 298.332031 161.574219 294.515625 154.8125 296.242188 C 153.613281 296.546875 151.753906 296.878906 151.503906 295.648438 C 151.203125 294.167969 154.617188 291.527344 154.257812 289.691406 C 154.175781 289.261719 153.898438 288.894531 153.425781 288.605469 C 152.402344 287.988281 147.453125 288.808594 147.851562 287.417969 C 148.34375 285.683594 151.042969 284.050781 150.796875 282.207031 C 150.652344 281.136719 149.382812 280.519531 149.296875 280.449219 C 146.476562 278.824219 143.554688 279.917969 146.480469 277.378906 C 146.859375 277.050781 147.289062 276.679688 147.675781 276.277344 C 149.761719 275.238281 150.441406 273.429688 148.605469 271.9375 C 147.808594 271.300781 145.214844 269.945312 145.234375 269.042969 C 145.671875 268.589844 149.800781 267.839844 150.742188 266.976562 C 153.972656 263.53125 142.234375 260.414062 150.5625 259.59375 C 153.871094 259.265625 155.511719 258.550781 153.890625 255.25 C 152.96875 253.367188 150.632812 252.296875 151.347656 251.339844 C 152.546875 249.839844 156.238281 249.460938 162.695312 253.332031 C 167.429688 256.171875 171.667969 260.289062 177.234375 266.367188 C 174.476562 265.835938 172.820312 265.5625 168.550781 263.472656 C 169.675781 264.449219 170.917969 265.292969 172.226562 266.03125 C 172.171875 266.019531 172.121094 266.007812 172.070312 266 C 172.300781 266.160156 172.539062 266.3125 172.78125 266.457031 C 180.0625 270.824219 191.589844 270.171875 196.445312 262.394531 C 193.332031 265.316406 190.011719 266.710938 185.652344 267.003906 C 187.988281 263.597656 188.757812 260.75 193.902344 256.503906 C 197.59375 253.460938 209.777344 247.953125 210.855469 251.371094 C 211.445312 253.269531 207.316406 255.042969 207.585938 257.382812 C 207.882812 259.953125 213.40625 258.472656 214.585938 259.703125 C 215.097656 260.246094 211.683594 263.328125 211.691406 264.507812 C 211.617188 266.039062 214.039062 266.386719 215.976562 267.550781 C 219.71875 269.796875 207.671875 271.71875 215.738281 275.363281 C 216.269531 275.601562 216.765625 275.828125 217.171875 276.074219 C 217.5 276.269531 218.066406 276.714844 218.117188 277.089844 C 218.121094 277.109375 218.125 277.136719 218.132812 277.160156 C 217.710938 279.558594 208.632812 278.972656 213.488281 283.714844 C 214.566406 284.769531 218.855469 286.113281 213.660156 287.59375 C 206.722656 289.574219 212.785156 292.574219 213.042969 294.09375 C 211.871094 295.851562 203.804688 293.640625 206.648438 298.101562 C 207.359375 299.210938 208.027344 300.386719 207.132812 301.148438 Z M 207.597656 296.054688 C 209.257812 295.808594 213.089844 297.148438 214.421875 294.980469 C 215.832031 292.230469 210.179688 290.371094 212.242188 289.3125 C 215.132812 289.105469 217.3125 288.117188 217.804688 286.792969 C 218.722656 284.320312 214.464844 283.304688 213.558594 281.597656 C 213.945312 280.140625 216.582031 280.933594 218.800781 279.039062 C 219.683594 278.25 219.816406 277.480469 219.765625 276.976562 C 219.683594 276.101562 218.988281 275.339844 218.253906 274.898438 C 216.761719 274.003906 214.628906 274.027344 214.152344 272.570312 C 214.699219 271.527344 217.640625 270.679688 218.335938 268.863281 C 219.457031 266.132812 213.703125 265.390625 212.804688 264.167969 C 213.109375 263.179688 216.457031 261.757812 216.191406 259.464844 C 216.121094 258.882812 215.738281 258.347656 214.890625 258.0625 C 214.847656 258.046875 211.058594 257.457031 210.054688 257.5625 L 210.0625 257.496094 C 208.078125 257.3125 209.101562 255.769531 210.492188 254.671875 C 212.136719 253.371094 212.425781 252.234375 212.382812 251.515625 C 212.160156 248.03125 206.382812 249.316406 206.300781 249.296875 C 202.09375 249.816406 197.617188 251.792969 193 255.179688 C 184.871094 261.40625 186.332031 266.414062 182.335938 267.386719 C 177.839844 266.714844 175.8125 259.9375 164.523438 253.167969 C 156.300781 248.234375 149.765625 248.339844 149.683594 251.914062 C 149.621094 254.671875 155.214844 256.578125 151.992188 258.171875 C 147.777344 258.402344 146.726562 258.660156 146.089844 259.609375 C 144.015625 263.070312 152.890625 265.109375 148.5625 266.828125 C 148.445312 266.875 148.074219 266.929688 147.683594 266.984375 C 143.847656 267.53125 142.125 268.769531 145 271.449219 C 146.523438 272.804688 148.789062 273.113281 148.308594 274.308594 C 146.644531 276.128906 142.726562 277.234375 143.773438 279.582031 C 143.929688 279.929688 144.1875 280.207031 144.570312 280.433594 C 145.800781 281.171875 147.972656 281.109375 148.980469 281.710938 C 151.464844 283.203125 144.714844 285.714844 145.949219 288.394531 C 148.21875 293.3125 155.78125 285.527344 151.226562 293.011719 C 150.125 294.613281 149.621094 295.488281 149.8125 296.363281 C 149.902344 296.789062 150.140625 297.117188 150.519531 297.34375 C 152.421875 298.484375 156.4375 296.921875 157.121094 297.332031 C 157.402344 297.5 156.535156 298.816406 156.359375 299.097656 C 155.671875 300.210938 154.894531 301.464844 155.160156 302.414062 C 155.167969 302.765625 155.808594 303.769531 156.355469 304.097656 C 158.429688 305.34375 163.132812 304.714844 168.878906 300.460938 C 177.195312 294.300781 179.335938 286.058594 181.804688 283.011719 C 187.84375 275.554688 184.003906 291.941406 198.507812 300.640625 C 201.152344 302.226562 203.898438 303.101562 206.671875 303.238281 C 212.886719 303.550781 207.058594 297.144531 207.597656 296.054688"/></g></g></g></g></g><g clip-path="url(#F)"><g clip-path="url(#G)"><g clip-path="url(#H)"><path d="M 190.433594 281.640625 C 190.144531 280.601562 189.730469 279.492188 188.90625 278.59375 C 188.101562 277.675781 186.925781 277.144531 185.800781 276.882812 C 184.652344 276.648438 183.480469 276.613281 182.308594 276.847656 C 181.730469 276.980469 181.148438 277.175781 180.601562 277.480469 C 180.050781 277.78125 179.527344 278.230469 179.171875 278.726562 C 178.808594 279.21875 178.539062 279.730469 178.296875 280.21875 C 178.050781 280.699219 177.828125 281.179688 177.601562 281.667969 C 176.695312 283.605469 175.832031 285.570312 175.109375 287.609375 C 176.410156 285.882812 177.574219 284.082031 178.691406 282.253906 C 179.273438 281.363281 179.753906 280.347656 180.347656 279.660156 C 180.648438 279.308594 180.949219 279.046875 181.34375 278.84375 C 181.730469 278.640625 182.175781 278.5 182.636719 278.40625 C 183.554688 278.195312 184.554688 278.210938 185.503906 278.363281 C 186.464844 278.511719 187.324219 278.871094 188.03125 279.476562 C 189.46875 280.699219 189.972656 283.003906 191.238281 284.757812 C 190.914062 283.726562 190.710938 282.699219 190.433594 281.640625"/></g></g></g><g clip-path="url(#I)"><g clip-path="url(#J)"><g clip-path="url(#K)"><path d="M 176.9375 235.902344 C 176.273438 236.976562 174.410156 238.324219 173.316406 238.914062 C 153.207031 249.753906 143.105469 222.898438 140.550781 250.3125 C 139.867188 257.667969 136.585938 265.9375 129.671875 269.457031 C 126.578125 271.03125 129.335938 264.363281 126.367188 263.96875 C 124.378906 263.707031 121.015625 266.226562 120.167969 264.761719 C 120.0625 264.578125 120.042969 264.363281 120.019531 264.15625 C 119.894531 262.855469 120.488281 260.824219 119.375 259.875 C 117.949219 258.648438 115.621094 260.269531 114.257812 259.375 C 112.523438 258.238281 114.808594 255.410156 113.566406 254.019531 C 112.542969 252.875 109.097656 254.21875 109.246094 251.058594 C 109.394531 247.945312 114.078125 245.988281 105.796875 245.4375 C 103.808594 244.503906 108.132812 242.28125 106.71875 239.824219 C 105.253906 237.277344 101.742188 239.941406 101.695312 236.167969 C 102.597656 234.832031 105.96875 234.261719 105.792969 232.699219 C 105.496094 230.027344 100.285156 229.773438 100.53125 227.964844 C 100.925781 225.058594 112.640625 223.328125 117.199219 223.585938 C 123.195312 223.925781 131.789062 229.761719 136.515625 226.027344 C 141.417969 222.160156 136.089844 211.390625 139.652344 203.652344 C 142.914062 195.691406 148.859375 193.382812 147.207031 199.328125 C 146.753906 200.949219 147.484375 202.425781 149.34375 201.953125 C 150.992188 201.527344 152.074219 199.855469 153.699219 199.304688 C 155.8125 198.585938 154.589844 202.289062 154.671875 203.578125 C 154.683594 204.734375 155.441406 205.414062 157.273438 204.921875 C 158.648438 204.453125 159.597656 203.632812 160.9375 203.980469 C 161.042969 204.042969 161.117188 204.132812 161.152344 204.257812 C 161.234375 204.5 161.21875 204.828125 161.152344 205.144531 C 160.867188 206.566406 158.652344 210.027344 161.417969 211.164062 C 163.523438 212.023438 164.699219 210.753906 166.644531 210.585938 C 168.007812 210.464844 168.410156 211.742188 167.902344 212.765625 C 167.289062 214.007812 166.03125 214.671875 166.1875 216.257812 C 166.417969 218.792969 169.246094 217.789062 171.324219 218.136719 C 172.894531 221.738281 168.304688 222.398438 170.363281 224.554688 C 171.574219 225.824219 173.871094 224.289062 174.8125 225.660156 C 173.464844 226.972656 171.785156 228.648438 172.613281 230.347656 C 173.546875 232.273438 175.886719 231.234375 177.089844 232.882812 C 177.484375 233.421875 177.308594 235.304688 176.9375 235.902344 Z M 174.28125 229.988281 C 173.308594 228.613281 175.152344 227.660156 175.773438 226.792969 C 179.71875 221.257812 168.730469 225.449219 171.863281 221.710938 C 172.292969 221.195312 172.660156 220.609375 172.929688 219.992188 C 174.828125 214.96875 166.945312 218.480469 167.597656 215.671875 C 167.917969 214.3125 169.4375 213.488281 169.675781 212.011719 C 170.15625 209.078125 167.003906 209.601562 165.113281 209.839844 C 164.410156 209.929688 162.941406 210.332031 162.3125 209.824219 C 161.292969 208.996094 162.304688 207.078125 162.636719 206.164062 C 162.867188 205.53125 163.011719 204.84375 162.863281 204.191406 C 162.710938 203.535156 162.210938 202.929688 161.550781 202.824219 C 161.246094 202.773438 160.9375 202.832031 160.636719 202.886719 C 159.113281 203.167969 156.398438 204.496094 156.15625 202.261719 C 156.0625 201.382812 156.015625 200.496094 156.023438 199.609375 C 156.027344 199.214844 156.035156 198.789062 155.8125 198.46875 C 155.421875 197.894531 154.574219 197.933594 153.90625 198.109375 C 152.792969 198.40625 149.941406 200.695312 148.902344 200.121094 C 148.535156 199.917969 148.40625 199.445312 148.414062 199.023438 C 148.4375 197.929688 148.484375 196.5625 147.933594 195.5625 C 146.796875 193.492188 133.804688 198.339844 136.71875 220.925781 C 136.964844 222.859375 136.335938 225.023438 134.273438 225.628906 C 130.605469 225.96875 121.824219 220.300781 108.390625 223.042969 C 106.039062 223.523438 99.367188 224.957031 99.175781 228.285156 C 99.023438 230.992188 104.761719 230.667969 102.6875 233.914062 C 102.355469 234.433594 101.847656 234.808594 101.308594 235.117188 C 99.910156 235.917969 99.453125 237.777344 100.816406 238.777344 C 101.550781 239.316406 102.445312 239.148438 103.230469 239.460938 C 104.515625 239.964844 105.144531 241.054688 104.457031 242.433594 C 100.871094 249.613281 109.777344 244.339844 108.667969 248.601562 C 107.257812 250.105469 106.535156 252.863281 107.03125 253.648438 C 108.25 255.511719 113.089844 253.5625 112.90625 255.546875 C 112.886719 255.507812 112.875 255.46875 112.855469 255.429688 C 112.839844 256.386719 112.398438 257.125 112.058594 258 C 111.460938 259.53125 111.542969 261.246094 113.414062 261.625 C 114.761719 261.898438 117.484375 260.261719 118.5 261.550781 C 118.652344 261.746094 118.722656 261.992188 118.773438 262.234375 C 119.046875 263.550781 118.304688 265.121094 118.859375 266.359375 C 120.210938 269.390625 124.945312 264.320312 126.050781 265.296875 C 127.101562 266.222656 126.34375 267.535156 126.46875 268.683594 C 126.902344 272.742188 130.316406 271.703125 132.554688 269.984375 C 146.554688 259.238281 140.363281 237.121094 147.570312 239.875 C 164.390625 246.296875 178.042969 241.148438 179.109375 233.882812 C 179.660156 230.371094 175.375 231.539062 174.28125 229.988281"/></g></g></g><g clip-path="url(#L)"><g clip-path="url(#M)"><g clip-path="url(#N)"><path d="M 147.3125 234.535156 C 149.375 233.425781 151.835938 231.835938 153.558594 230.238281 C 151.695312 231.359375 148.265625 232.667969 143.488281 233.886719 C 137.148438 235.820312 136.84375 246.078125 136.402344 247.183594 C 136.039062 248.230469 135.378906 249.179688 134.542969 249.96875 C 138.859375 247.425781 136.289062 243.511719 141.238281 238.410156 C 144.808594 234.589844 147.898438 235.382812 153.664062 235.359375 C 151.585938 234.960938 149.492188 234.515625 147.3125 234.535156"/></g></g></g><g clip-path="url(#O)"><g clip-path="url(#P)"><g clip-path="url(#Q)"><path d="M 147.332031 217.890625 C 145.351562 222.277344 139.035156 227.597656 137.925781 228.394531 C 128.695312 234.945312 119.269531 233.808594 120.765625 234.046875 C 144.289062 237.820312 149.355469 213.410156 147.332031 217.890625"/></g></g></g><g><use x="139.015" y="347.41" xmlns:xlink="http://www.w3.org/1999/xlink" xlink:href="#R" xlink:type="simple" xlink:actuate="onLoad" xlink:show="embed"/></g><g><use x="152.127" y="347.41" xmlns:xlink="http://www.w3.org/1999/xlink" xlink:href="#S" xlink:type="simple" xlink:actuate="onLoad" xlink:show="embed"/></g><g><use x="165.121" y="347.41" xmlns:xlink="http://www.w3.org/1999/xlink" xlink:href="#T" xlink:type="simple" xlink:actuate="onLoad" xlink:show="embed"/></g><g><use x="178.093" y="347.41" xmlns:xlink="http://www.w3.org/1999/xlink" xlink:href="#U" xlink:type="simple" xlink:actuate="onLoad" xlink:show="embed"/></g><g><use x="187.15" y="347.41" xmlns:xlink="http://www.w3.org/1999/xlink" xlink:href="#V" xlink:type="simple" xlink:actuate="onLoad" xlink:show="embed"/></g><g><use x="199.446" y="347.41" xmlns:xlink="http://www.w3.org/1999/xlink" xlink:href="#W" xlink:type="simple" xlink:actuate="onLoad" xlink:show="embed"/></g><g><use x="212.547" y="347.41" xmlns:xlink="http://www.w3.org/1999/xlink" xlink:href="#V" xlink:type="simple" xlink:actuate="onLoad" xlink:show="embed"/></g><g><use x="224.843" y="347.41" xmlns:xlink="http://www.w3.org/1999/xlink" xlink:href="#W" xlink:type="simple" xlink:actuate="onLoad" xlink:show="embed"/></g><g><use x="192.448" y="138.517" xmlns:xlink="http://www.w3.org/1999/xlink" xlink:href="#X" xlink:type="simple" xlink:actuate="onLoad" xlink:show="embed"/></g></svg>